<?xml version="1.0" encoding="utf-8"?>
<!-- Generator: Adobe Illustrator 16.0.0, SVG Export Plug-In . SVG Version: 6.00 Build 0)  -->
<!DOCTYPE svg PUBLIC "-//W3C//DTD SVG 1.1//EN" "http://www.w3.org/Graphics/SVG/1.1/DTD/svg11.dtd">
<svg version="1.1" id="Camada_1" xmlns="http://www.w3.org/2000/svg" xmlns:xlink="http://www.w3.org/1999/xlink" x="0px" y="0px"
	 width="16px" height="16px" viewBox="0 0 16 16" enable-background="new 0 0 16 16" xml:space="preserve">
<g>
	<path fill="#A5AEB3" d="M15.429,14.857c0,0.625-0.519,1.143-1.143,1.143H1.714c-0.625,0-1.143-0.518-1.143-1.143V3.429
		c0-0.625,0.518-1.143,1.143-1.143h1.143V1.429C2.857,0.643,3.5,0,4.286,0h0.571c0.786,0,1.429,0.643,1.429,1.429v0.857h3.428V1.429
		C9.714,0.643,10.357,0,11.143,0h0.571c0.786,0,1.429,0.643,1.429,1.429v0.857h1.144c0.624,0,1.143,0.518,1.143,1.143V14.857z
		 M4.286,8.286V5.715H1.714v2.571H4.286z M4.286,11.715V8.857H1.714v2.857H4.286z M4.286,14.857v-2.57H1.714v2.57H4.286z
		 M5.143,1.429c0-0.152-0.134-0.286-0.286-0.286H4.286C4.134,1.144,4,1.277,4,1.429V4c0,0.152,0.134,0.286,0.286,0.286h0.571
		c0.152,0,0.286-0.134,0.286-0.286V1.429z M7.714,8.286V5.715H4.857v2.571H7.714z M7.714,11.715V8.857H4.857v2.857H7.714z
		 M7.714,14.857v-2.57H4.857v2.57H7.714z M11.143,8.286V5.715H8.286v2.571H11.143z M11.143,11.715V8.857H8.286v2.857H11.143z
		 M11.143,14.857v-2.57H8.286v2.57H11.143z M12,1.429c0-0.152-0.134-0.286-0.286-0.286h-0.571c-0.151,0-0.285,0.134-0.285,0.286V4
		c0,0.152,0.134,0.286,0.285,0.286h0.571C11.866,4.286,12,4.152,12,4V1.429z M14.286,8.286V5.715h-2.572v2.571H14.286z
		 M14.286,11.715V8.857h-2.572v2.857H14.286z M14.286,14.857v-2.57h-2.572v2.57H14.286z"/>
</g>
</svg>
