<?xml version="1.0" encoding="utf-8"?>
<!-- Generator: Adobe Illustrator 16.0.0, SVG Export Plug-In . SVG Version: 6.00 Build 0)  -->
<!DOCTYPE svg PUBLIC "-//W3C//DTD SVG 1.1//EN" "http://www.w3.org/Graphics/SVG/1.1/DTD/svg11.dtd">
<svg version="1.1" id="Camada_1" xmlns="http://www.w3.org/2000/svg" xmlns:xlink="http://www.w3.org/1999/xlink" x="0px" y="0px"
	 width="16px" height="16px" viewBox="0 0 16 16" enable-background="new 0 0 16 16" xml:space="preserve">
<path fill="#FFFFFF" d="M14.958,6.102c0.211,0,0.409,0.101,0.589,0.303c0.181,0.202,0.271,0.421,0.271,0.654v2.776
	c0,0.234-0.091,0.452-0.271,0.654c-0.18,0.202-0.378,0.304-0.589,0.304H13.36l0.703,3.988H1.937l0.702-3.988H1.075
	c-0.213,0-0.415-0.102-0.606-0.304s-0.287-0.42-0.287-0.654V7.059c0-0.233,0.096-0.452,0.287-0.654s0.394-0.303,0.606-0.303H14.958z
	 M1.235,5.208c-0.277,0-0.394-0.117-0.352-0.352C0.927,4.75,0.99,4.676,1.075,4.634c0.021,0,0.281-0.09,0.782-0.271
	c0.499-0.181,0.994-0.351,1.484-0.511C3.83,3.692,4.139,3.612,4.267,3.612h0.702V1.219h6.062v2.394h0.735
	c0.128,0,0.431,0.08,0.909,0.239c0.479,0.16,0.968,0.33,1.47,0.511c0.498,0.182,0.759,0.271,0.781,0.271
	c0.19,0.085,0.255,0.223,0.19,0.414c-0.043,0.107-0.15,0.16-0.32,0.16H1.235z M3.533,13.187h8.935l-1.117-5.17H4.649L3.533,13.187z"
	/>
</svg>
