<?xml version="1.0" encoding="utf-8"?>
<!-- Generator: Adobe Illustrator 16.0.0, SVG Export Plug-In . SVG Version: 6.00 Build 0)  -->
<!DOCTYPE svg PUBLIC "-//W3C//DTD SVG 1.1//EN" "http://www.w3.org/Graphics/SVG/1.1/DTD/svg11.dtd">
<svg version="1.1" id="Camada_1" xmlns="http://www.w3.org/2000/svg" xmlns:xlink="http://www.w3.org/1999/xlink" x="0px" y="0px"
	 width="16px" height="16px" viewBox="0 0 16 16" enable-background="new 0 0 16 16" xml:space="preserve">
<path fill="#FFFFFF" d="M14.929,13.352c0.216,0.213,0.321,0.475,0.321,0.782c0,0.304-0.109,0.564-0.332,0.787
	c-0.218,0.219-0.48,0.329-0.781,0.329c-0.315,0-0.577-0.11-0.787-0.329l-2.987-2.982c-1.039,0.72-2.199,1.082-3.477,1.082
	c-0.832,0-1.625-0.163-2.384-0.485c-0.758-0.322-1.411-0.759-1.96-1.306c-0.548-0.551-0.984-1.203-1.307-1.961
	C0.912,8.51,0.75,7.717,0.75,6.885c0-0.831,0.162-1.625,0.484-2.384C1.557,3.743,1.993,3.09,2.541,2.54
	c0.549-0.548,1.203-0.984,1.96-1.307C5.26,0.911,6.054,0.75,6.885,0.75c0.83,0,1.625,0.162,2.383,0.484
	c0.758,0.322,1.413,0.758,1.961,1.307c0.549,0.55,0.983,1.203,1.307,1.961c0.321,0.758,0.484,1.553,0.484,2.384
	c0,1.277-0.361,2.438-1.082,3.477L14.929,13.352L14.929,13.352z M9.643,9.643c0.766-0.765,1.146-1.684,1.146-2.758
	c0-1.075-0.38-1.995-1.146-2.758C8.878,3.363,7.959,2.981,6.885,2.981c-1.075,0-1.995,0.382-2.758,1.146
	C3.363,4.89,2.981,5.81,2.981,6.885c0,1.074,0.382,1.993,1.146,2.758c0.764,0.763,1.683,1.146,2.758,1.146
	C7.959,10.788,8.878,10.405,9.643,9.643z"/>
</svg>
