<?xml version="1.0" encoding="utf-8"?>
<!-- Generator: Adobe Illustrator 16.0.0, SVG Export Plug-In . SVG Version: 6.00 Build 0)  -->
<!DOCTYPE svg PUBLIC "-//W3C//DTD SVG 1.1//EN" "http://www.w3.org/Graphics/SVG/1.1/DTD/svg11.dtd">
<svg version="1.1" id="Camada_1" xmlns="http://www.w3.org/2000/svg" xmlns:xlink="http://www.w3.org/1999/xlink" x="0px" y="0px"
	 width="16px" height="16px" viewBox="0 0 16 16" enable-background="new 0 0 16 16" xml:space="preserve">
<path fill="#34495E" d="M6.015,12.068c0.176-0.174,0.388-0.26,0.638-0.26c0.251,0,0.476,0.086,0.673,0.26
	c0.399,0.428,0.399,0.863,0,1.312l-0.786,0.75c-0.701,0.701-1.527,1.047-2.491,1.047c-0.96,0-1.791-0.346-2.49-1.047
	c-0.698-0.699-1.049-1.527-1.049-2.49c0-0.961,0.349-1.791,1.049-2.49L4.332,6.38c0.872-0.848,1.773-1.329,2.697-1.441
	C7.951,4.827,8.75,5.096,9.425,5.745C9.623,5.94,9.723,6.167,9.723,6.417c0,0.25-0.099,0.476-0.297,0.675
	c-0.451,0.399-0.889,0.399-1.311,0c-0.626-0.6-1.449-0.389-2.475,0.634l-2.772,2.733c-0.321,0.326-0.486,0.727-0.486,1.199
	s0.164,0.869,0.486,1.182c0.324,0.311,0.718,0.465,1.179,0.465c0.462,0,0.855-0.162,1.184-0.484L6.015,12.068z M14.444,1.323
	c0.697,0.698,1.045,1.531,1.045,2.49c0,0.961-0.346,1.791-1.045,2.489l-2.962,2.962c-0.924,0.895-1.857,1.346-2.808,1.346
	c-0.773,0-1.473-0.312-2.097-0.936C6.403,9.498,6.314,9.287,6.314,9.039c0-0.254,0.087-0.469,0.264-0.656
	C6.752,8.192,6.97,8.103,7.232,8.103c0.264,0,0.482,0.086,0.655,0.261c0.625,0.597,1.389,0.445,2.287-0.452l2.96-2.92
	c0.347-0.349,0.523-0.755,0.523-1.217c0-0.461-0.177-0.841-0.523-1.14c-0.3-0.327-0.653-0.518-1.052-0.58
	c-0.398-0.063-0.774,0.067-1.124,0.392l-0.936,0.936C9.823,3.555,9.599,3.646,9.351,3.646c-0.253,0-0.464-0.091-0.639-0.264
	c-0.426-0.425-0.426-0.862,0-1.312l0.938-0.935c0.674-0.674,1.465-0.992,2.375-0.956C12.939,0.217,13.743,0.601,14.444,1.323z"/>
</svg>
